<?xml version="1.0" encoding="utf-8"?>
<!-- Generator: Adobe Illustrator 23.0.3, SVG Export Plug-In . SVG Version: 6.00 Build 0)  -->
<svg version="1.1" id="Capa_1" xmlns="http://www.w3.org/2000/svg" xmlns:xlink="http://www.w3.org/1999/xlink" x="0px" y="0px"
	 viewBox="0 0 792 727.04" style="enable-background:new 0 0 792 727.04;" xml:space="preserve">
<style type="text/css">
	.st0{fill:#C4D600;}
	.st1{fill:none;stroke:#211915;stroke-miterlimit:10;}
	.st2{fill:#211915;}
</style>
<polygon class="st0" points="24.57,11.23 29.28,20.77 39.82,22.31 32.19,29.74 33.99,40.23 24.57,35.28 15.14,40.23 16.94,29.74 
	9.32,22.31 19.85,20.77 "/>
<polygon class="st0" points="392.74,11.23 397.45,20.77 407.99,22.31 400.36,29.74 402.16,40.23 392.74,35.28 383.31,40.23 
	385.11,29.74 377.49,22.31 388.02,20.77 "/>
<polygon class="st0" points="761.42,11.23 766.13,20.77 776.67,22.31 769.04,29.74 770.84,40.23 761.42,35.28 751.99,40.23 
	753.79,29.74 746.17,22.31 756.7,20.77 "/>
<polygon class="st0" points="24.57,85.27 29.28,94.82 39.82,96.35 32.19,103.78 33.99,114.28 24.57,109.32 15.14,114.28 
	16.94,103.78 9.32,96.35 19.85,94.82 "/>
<polygon class="st0" points="392.74,85.27 397.45,94.82 407.99,96.35 400.36,103.78 402.16,114.28 392.74,109.32 383.31,114.28 
	385.11,103.78 377.49,96.35 388.02,94.82 "/>
<polygon class="st0" points="761.42,85.27 766.13,94.82 776.67,96.35 769.04,103.78 770.84,114.28 761.42,109.32 751.99,114.28 
	753.79,103.78 746.17,96.35 756.7,94.82 "/>
<polygon class="st0" points="24.57,159.31 29.28,168.86 39.82,170.39 32.19,177.82 33.99,188.32 24.57,183.36 15.14,188.32 
	16.94,177.82 9.32,170.39 19.85,168.86 "/>
<polygon class="st0" points="392.74,159.31 397.45,168.86 407.99,170.39 400.36,177.82 402.16,188.32 392.74,183.36 383.31,188.32 
	385.11,177.82 377.49,170.39 388.02,168.86 "/>
<polygon class="st0" points="761.42,159.31 766.13,168.86 776.67,170.39 769.04,177.82 770.84,188.32 761.42,183.36 751.99,188.32 
	753.79,177.82 746.17,170.39 756.7,168.86 "/>
<polygon class="st0" points="24.57,235.4 29.28,244.94 39.82,246.48 32.19,253.91 33.99,264.4 24.57,259.45 15.14,264.4 
	16.94,253.91 9.32,246.48 19.85,244.94 "/>
<polygon class="st0" points="392.74,235.4 397.45,244.94 407.99,246.48 400.36,253.91 402.16,264.4 392.74,259.45 383.31,264.4 
	385.11,253.91 377.49,246.48 388.02,244.94 "/>
<polygon class="st0" points="761.42,235.4 766.13,244.94 776.67,246.48 769.04,253.91 770.84,264.4 761.42,259.45 751.99,264.4 
	753.79,253.91 746.17,246.48 756.7,244.94 "/>
<polygon class="st0" points="24.57,311.48 29.28,321.03 39.82,322.56 32.19,329.99 33.99,340.49 24.57,335.53 15.14,340.49 
	16.94,329.99 9.32,322.56 19.85,321.03 "/>
<polygon class="st0" points="392.74,311.48 397.45,321.03 407.99,322.56 400.36,329.99 402.16,340.49 392.74,335.53 383.31,340.49 
	385.11,329.99 377.49,322.56 388.02,321.03 "/>
<polygon class="st0" points="761.42,311.48 766.13,321.03 776.67,322.56 769.04,329.99 770.84,340.49 761.42,335.53 751.99,340.49 
	753.79,329.99 746.17,322.56 756.7,321.03 "/>
<polygon class="st0" points="24.57,384.43 29.28,393.98 39.82,395.51 32.19,402.94 33.99,413.44 24.57,408.48 15.14,413.44 
	16.94,402.94 9.32,395.51 19.85,393.98 "/>
<polygon class="st0" points="392.74,384.43 397.45,393.98 407.99,395.51 400.36,402.94 402.16,413.44 392.74,408.48 383.31,413.44 
	385.11,402.94 377.49,395.51 388.02,393.98 "/>
<polygon class="st0" points="761.42,384.43 766.13,393.98 776.67,395.51 769.04,402.94 770.84,413.44 761.42,408.48 751.99,413.44 
	753.79,402.94 746.17,395.51 756.7,393.98 "/>
<polygon class="st0" points="24.57,457.38 29.28,466.93 39.82,468.46 32.19,475.89 33.99,486.39 24.57,481.43 15.14,486.39 
	16.94,475.89 9.32,468.46 19.85,466.93 "/>
<polygon class="st0" points="392.74,457.38 397.45,466.93 407.99,468.46 400.36,475.89 402.16,486.39 392.74,481.43 383.31,486.39 
	385.11,475.89 377.49,468.46 388.02,466.93 "/>
<polygon class="st0" points="761.42,457.38 766.13,466.93 776.67,468.46 769.04,475.89 770.84,486.39 761.42,481.43 751.99,486.39 
	753.79,475.89 746.17,468.46 756.7,466.93 "/>
<polygon class="st0" points="24.57,534.49 29.28,544.03 39.82,545.56 32.19,553 33.99,563.49 24.57,558.54 15.14,563.49 16.94,553 
	9.32,545.56 19.85,544.03 "/>
<polygon class="st0" points="392.74,534.49 397.45,544.03 407.99,545.56 400.36,553 402.16,563.49 392.74,558.54 383.31,563.49 
	385.11,553 377.49,545.56 388.02,544.03 "/>
<polygon class="st0" points="761.42,534.49 766.13,544.03 776.67,545.56 769.04,553 770.84,563.49 761.42,558.54 751.99,563.49 
	753.79,553 746.17,545.56 756.7,544.03 "/>
<polygon class="st0" points="24.57,607.43 29.28,616.98 39.82,618.51 32.19,625.95 33.99,636.44 24.57,631.49 15.14,636.44 
	16.94,625.95 9.32,618.51 19.85,616.98 "/>
<polygon class="st0" points="392.74,607.43 397.45,616.98 407.99,618.51 400.36,625.95 402.16,636.44 392.74,631.49 383.31,636.44 
	385.11,625.95 377.49,618.51 388.02,616.98 "/>
<polygon class="st0" points="761.42,607.43 766.13,616.98 776.67,618.51 769.04,625.95 770.84,636.44 761.42,631.49 751.99,636.44 
	753.79,625.95 746.17,618.51 756.7,616.98 "/>
<polygon class="st0" points="24.57,684.54 29.28,694.09 39.82,695.62 32.19,703.05 33.99,713.55 24.57,708.59 15.14,713.55 
	16.94,703.05 9.32,695.62 19.85,694.09 "/>
<polygon class="st0" points="392.74,684.54 397.45,694.09 407.99,695.62 400.36,703.05 402.16,713.55 392.74,708.59 383.31,713.55 
	385.11,703.05 377.49,695.62 388.02,694.09 "/>
<polygon class="st0" points="761.42,684.54 766.13,694.09 776.67,695.62 769.04,703.05 770.84,713.55 761.42,708.59 751.99,713.55 
	753.79,703.05 746.17,695.62 756.7,694.09 "/>
<g>
	<g>
		<line class="st1" x1="46.87" y1="28.87" x2="364.25" y2="28.87"/>
		<g>
			<polygon class="st2" points="360.41,33.62 359.62,32.77 363.81,28.87 359.62,24.98 360.41,24.13 365.51,28.87 			"/>
		</g>
	</g>
</g>
<g>
	<g>
		<line class="st1" x1="417.76" y1="28.87" x2="735.14" y2="28.87"/>
		<g>
			<polygon class="st2" points="731.29,33.62 730.5,32.77 734.69,28.87 730.5,24.98 731.29,24.13 736.4,28.87 			"/>
		</g>
	</g>
</g>
<g>
	<g>
		<line class="st1" x1="46.87" y1="103.94" x2="364.25" y2="103.94"/>
		<g>
			<polygon class="st2" points="360.41,108.68 359.62,107.83 363.81,103.94 359.62,100.04 360.41,99.19 365.51,103.94 			"/>
		</g>
	</g>
</g>
<g>
	<g>
		<line class="st1" x1="417.76" y1="103.94" x2="735.14" y2="103.94"/>
		<g>
			<polygon class="st2" points="731.29,108.68 730.5,107.83 734.69,103.94 730.5,100.04 731.29,99.19 736.4,103.94 			"/>
		</g>
	</g>
</g>
<g>
	<g>
		<line class="st1" x1="46.87" y1="179" x2="364.25" y2="179"/>
		<g>
			<polygon class="st2" points="360.41,183.74 359.62,182.89 363.81,179 359.62,175.11 360.41,174.26 365.51,179 			"/>
		</g>
	</g>
</g>
<g>
	<g>
		<line class="st1" x1="417.76" y1="179" x2="735.14" y2="179"/>
		<g>
			<polygon class="st2" points="731.29,183.74 730.5,182.89 734.69,179 730.5,175.11 731.29,174.26 736.4,179 			"/>
		</g>
	</g>
</g>
<g>
	<g>
		<line class="st1" x1="46.87" y1="254.06" x2="364.25" y2="254.06"/>
		<g>
			<polygon class="st2" points="360.41,258.81 359.62,257.96 363.81,254.06 359.62,250.17 360.41,249.32 365.51,254.06 			"/>
		</g>
	</g>
</g>
<g>
	<g>
		<line class="st1" x1="417.76" y1="254.06" x2="735.14" y2="254.06"/>
		<g>
			<polygon class="st2" points="731.29,258.81 730.5,257.96 734.69,254.06 730.5,250.17 731.29,249.32 736.4,254.06 			"/>
		</g>
	</g>
</g>
<g>
	<g>
		<line class="st1" x1="46.87" y1="329.13" x2="364.25" y2="329.13"/>
		<g>
			<polygon class="st2" points="360.41,333.87 359.62,333.02 363.81,329.13 359.62,325.23 360.41,324.38 365.51,329.13 			"/>
		</g>
	</g>
</g>
<g>
	<g>
		<line class="st1" x1="417.76" y1="329.13" x2="735.14" y2="329.13"/>
		<g>
			<polygon class="st2" points="731.29,333.87 730.5,333.02 734.69,329.13 730.5,325.23 731.29,324.38 736.4,329.13 			"/>
		</g>
	</g>
</g>
<g>
	<g>
		<line class="st1" x1="46.87" y1="404.19" x2="364.25" y2="404.19"/>
		<g>
			<polygon class="st2" points="360.41,408.94 359.62,408.09 363.81,404.19 359.62,400.3 360.41,399.45 365.51,404.19 			"/>
		</g>
	</g>
</g>
<g>
	<g>
		<line class="st1" x1="417.76" y1="404.19" x2="735.14" y2="404.19"/>
		<g>
			<polygon class="st2" points="731.29,408.94 730.5,408.09 734.69,404.19 730.5,400.3 731.29,399.45 736.4,404.19 			"/>
		</g>
	</g>
</g>
<g>
	<g>
		<line class="st1" x1="46.87" y1="479.26" x2="364.25" y2="479.26"/>
		<g>
			<polygon class="st2" points="360.41,484 359.62,483.15 363.81,479.26 359.62,475.36 360.41,474.51 365.51,479.26 			"/>
		</g>
	</g>
</g>
<g>
	<g>
		<line class="st1" x1="417.76" y1="479.26" x2="735.14" y2="479.26"/>
		<g>
			<polygon class="st2" points="731.29,484 730.5,483.15 734.69,479.26 730.5,475.36 731.29,474.51 736.4,479.26 			"/>
		</g>
	</g>
</g>
<g>
	<g>
		<line class="st1" x1="46.87" y1="553.32" x2="364.25" y2="553.32"/>
		<g>
			<polygon class="st2" points="360.41,558.06 359.62,557.21 363.81,553.32 359.62,549.43 360.41,548.58 365.51,553.32 			"/>
		</g>
	</g>
</g>
<g>
	<g>
		<line class="st1" x1="417.76" y1="553.32" x2="735.14" y2="553.32"/>
		<g>
			<polygon class="st2" points="731.29,558.06 730.5,557.21 734.69,553.32 730.5,549.43 731.29,548.58 736.4,553.32 			"/>
		</g>
	</g>
</g>
<g>
	<g>
		<line class="st1" x1="46.87" y1="627.38" x2="364.25" y2="627.38"/>
		<g>
			<polygon class="st2" points="360.41,632.13 359.62,631.28 363.81,627.38 359.62,623.49 360.41,622.64 365.51,627.38 			"/>
		</g>
	</g>
</g>
<g>
	<g>
		<line class="st1" x1="417.76" y1="627.38" x2="735.14" y2="627.38"/>
		<g>
			<polygon class="st2" points="731.29,632.13 730.5,631.28 734.69,627.38 730.5,623.49 731.29,622.64 736.4,627.38 			"/>
		</g>
	</g>
</g>
<g>
	<g>
		<line class="st1" x1="46.87" y1="701.45" x2="364.25" y2="701.45"/>
		<g>
			<polygon class="st2" points="360.41,706.19 359.62,705.34 363.81,701.45 359.62,697.55 360.41,696.7 365.51,701.45 			"/>
		</g>
	</g>
</g>
<g>
	<g>
		<line class="st1" x1="417.76" y1="701.45" x2="735.14" y2="701.45"/>
		<g>
			<polygon class="st2" points="731.29,706.19 730.5,705.34 734.69,701.45 730.5,697.55 731.29,696.7 736.4,701.45 			"/>
		</g>
	</g>
</g>
<g>
	<g>
		<line class="st1" x1="48.06" y1="103.81" x2="736.4" y2="28.87"/>
		<g>
			<polygon class="st2" points="52.17,107.89 52.83,107 48.48,103.76 52.03,99.66 51.19,98.94 46.87,103.94 			"/>
		</g>
	</g>
</g>
<g>
	<g>
		<line class="st1" x1="48.06" y1="178.87" x2="736.4" y2="103.94"/>
		<g>
			<polygon class="st2" points="52.17,182.95 52.83,182.07 48.48,178.83 52.03,174.72 51.19,174.01 46.87,179 			"/>
		</g>
	</g>
</g>
<g>
	<g>
		<line class="st1" x1="48.06" y1="253.93" x2="736.4" y2="179"/>
		<g>
			<polygon class="st2" points="52.17,258.01 52.83,257.13 48.48,253.89 52.03,249.79 51.19,249.07 46.87,254.06 			"/>
		</g>
	</g>
</g>
<g>
	<g>
		<line class="st1" x1="48.06" y1="329" x2="736.4" y2="254.06"/>
		<g>
			<polygon class="st2" points="52.17,333.08 52.83,332.19 48.48,328.95 52.03,324.85 51.19,324.13 46.87,329.13 			"/>
		</g>
	</g>
</g>
<g>
	<g>
		<line class="st1" x1="48.06" y1="402.61" x2="736.4" y2="327.67"/>
		<g>
			<polygon class="st2" points="52.17,406.69 52.83,405.8 48.48,402.56 52.03,398.46 51.19,397.74 46.87,402.74 			"/>
		</g>
	</g>
</g>
<g>
	<g>
		<line class="st1" x1="48.06" y1="478.4" x2="736.4" y2="403.46"/>
		<g>
			<polygon class="st2" points="52.17,482.48 52.83,481.6 48.48,478.35 52.03,474.25 51.19,473.53 46.87,478.53 			"/>
		</g>
	</g>
</g>
<g>
	<g>
		<line class="st1" x1="48.06" y1="553.19" x2="736.4" y2="478.26"/>
		<g>
			<polygon class="st2" points="52.17,557.27 52.83,556.39 48.48,553.15 52.03,549.04 51.19,548.32 46.87,553.32 			"/>
		</g>
	</g>
</g>
<g>
	<g>
		<line class="st1" x1="48.06" y1="627.75" x2="736.4" y2="552.82"/>
		<g>
			<polygon class="st2" points="52.17,631.83 52.83,630.95 48.48,627.71 52.03,623.61 51.19,622.89 46.87,627.88 			"/>
		</g>
	</g>
</g>
<g>
	<g>
		<line class="st1" x1="48.06" y1="702.32" x2="736.4" y2="627.38"/>
		<g>
			<polygon class="st2" points="52.17,706.4 52.83,705.51 48.48,702.27 52.03,698.17 51.19,697.45 46.87,702.45 			"/>
		</g>
	</g>
</g>
</svg>
